<?xml version="1.0" encoding="utf-8" standalone="no"?>
<!DOCTYPE svg PUBLIC "-//W3C//DTD SVG 1.1//EN"
  "http://www.w3.org/Graphics/SVG/1.1/DTD/svg11.dtd">
<svg xmlns:xlink="http://www.w3.org/1999/xlink" width="720pt" height="432pt" viewBox="0 0 720 432" xmlns="http://www.w3.org/2000/svg" version="1.1">
 <metadata>
  <rdf:RDF xmlns:dc="http://purl.org/dc/elements/1.1/" xmlns:cc="http://creativecommons.org/ns#" xmlns:rdf="http://www.w3.org/1999/02/22-rdf-syntax-ns#">
   <cc:Work>
    <dc:type rdf:resource="http://purl.org/dc/dcmitype/StillImage"/>
    <dc:date>2024-03-18T20:02:10.471262</dc:date>
    <dc:format>image/svg+xml</dc:format>
    <dc:creator>
     <cc:Agent>
      <dc:title>Matplotlib v3.8.3, https://matplotlib.org/</dc:title>
     </cc:Agent>
    </dc:creator>
   </cc:Work>
  </rdf:RDF>
 </metadata>
 <defs>
  <style type="text/css">*{stroke-linejoin: round; stroke-linecap: butt}</style>
 </defs>
 <g id="figure_1">
  <g id="patch_1">
   <path d="M 0 432 
L 720 432 
L 720 0 
L 0 0 
z
" style="fill: #ffffff"/>
  </g>
  <g id="axes_1">
   <g id="patch_2">
    <path d="M 90 384.48 
L 648 384.48 
L 648 51.84 
L 90 51.84 
z
" style="fill: #ffffff"/>
   </g>
   <g id="PolyCollection_1">
    <path d="M 620.938324 369.36 
L 620.938324 305.696842 
L 620.938324 305.696842 
L 620.938324 369.36 
z
" clip-path="url(#p4f8592540d)" style="fill: #1f77b4; stroke: #000000"/>
    <path d="M 593.484449 369.36 
L 593.484449 305.696842 
L 608.927254 305.696842 
L 608.927254 369.36 
z
" clip-path="url(#p4f8592540d)" style="fill: #1f77b4; stroke: #000000"/>
    <path d="M 578.041645 369.36 
L 578.041645 305.696842 
L 593.484449 305.696842 
L 593.484449 369.36 
z
" clip-path="url(#p4f8592540d)" style="fill: #1f77b4; stroke: #000000"/>
    <path d="M 562.59884 369.36 
L 562.59884 305.696842 
L 577.796521 305.696842 
L 577.796521 369.36 
z
" clip-path="url(#p4f8592540d)" style="fill: #1f77b4; stroke: #000000"/>
    <path d="M 546.910912 369.36 
L 546.910912 305.696842 
L 562.59884 305.696842 
L 562.59884 369.36 
z
" clip-path="url(#p4f8592540d)" style="fill: #1f77b4; stroke: #000000"/>
    <path d="M 531.468108 369.36 
L 531.468108 305.696842 
L 546.910912 305.696842 
L 546.910912 369.36 
z
" clip-path="url(#p4f8592540d)" style="fill: #1f77b4; stroke: #000000"/>
    <path d="M 515.780179 369.36 
L 515.780179 305.696842 
L 531.468108 305.696842 
L 531.468108 369.36 
z
" clip-path="url(#p4f8592540d)" style="fill: #1f77b4; stroke: #000000"/>
    <path d="M 500.337375 369.36 
L 500.337375 305.696842 
L 515.780179 305.696842 
L 515.780179 369.36 
z
" clip-path="url(#p4f8592540d)" style="fill: #1f77b4; stroke: #000000"/>
    <path d="M 473.128624 369.36 
L 473.128624 305.696842 
L 488.571429 305.696842 
L 488.571429 369.36 
z
" clip-path="url(#p4f8592540d)" style="fill: #1f77b4; stroke: #000000"/>
    <path d="M 457.440696 369.36 
L 457.440696 305.696842 
L 473.128624 305.696842 
L 473.128624 369.36 
z
" clip-path="url(#p4f8592540d)" style="fill: #1f77b4; stroke: #000000"/>
    <path d="M 441.997891 369.36 
L 441.997891 305.696842 
L 457.440696 305.696842 
L 457.440696 369.36 
z
" clip-path="url(#p4f8592540d)" style="fill: #1f77b4; stroke: #000000"/>
    <path d="M 426.309963 369.36 
L 426.309963 305.696842 
L 441.997891 305.696842 
L 441.997891 369.36 
z
" clip-path="url(#p4f8592540d)" style="fill: #1f77b4; stroke: #000000"/>
    <path d="M 410.867159 369.36 
L 410.867159 305.696842 
L 426.309963 305.696842 
L 426.309963 369.36 
z
" clip-path="url(#p4f8592540d)" style="fill: #1f77b4; stroke: #000000"/>
    <path d="M 395.424354 369.36 
L 395.424354 305.696842 
L 410.867159 305.696842 
L 410.867159 369.36 
z
" clip-path="url(#p4f8592540d)" style="fill: #1f77b4; stroke: #000000"/>
    <path d="M 379.98155 369.36 
L 379.98155 305.696842 
L 395.424354 305.696842 
L 395.424354 369.36 
z
" clip-path="url(#p4f8592540d)" style="fill: #1f77b4; stroke: #000000"/>
    <path d="M 364.538745 369.36 
L 364.538745 305.696842 
L 379.98155 305.696842 
L 379.98155 369.36 
z
" clip-path="url(#p4f8592540d)" style="fill: #1f77b4; stroke: #000000"/>
    <path d="M 349.095941 369.36 
L 349.095941 305.696842 
L 364.538745 305.696842 
L 364.538745 369.36 
z
" clip-path="url(#p4f8592540d)" style="fill: #1f77b4; stroke: #000000"/>
    <path d="M 321.396943 369.36 
L 321.396943 305.696842 
L 336.839747 305.696842 
L 336.839747 369.36 
z
" clip-path="url(#p4f8592540d)" style="fill: #1f77b4; stroke: #000000"/>
    <path d="M 305.954138 369.36 
L 305.954138 305.696842 
L 321.396943 305.696842 
L 321.396943 369.36 
z
" clip-path="url(#p4f8592540d)" style="fill: #1f77b4; stroke: #000000"/>
    <path d="M 290.511334 369.36 
L 290.511334 305.696842 
L 305.954138 305.696842 
L 305.954138 369.36 
z
" clip-path="url(#p4f8592540d)" style="fill: #1f77b4; stroke: #000000"/>
    <path d="M 275.068529 369.36 
L 275.068529 305.696842 
L 290.511334 305.696842 
L 290.511334 369.36 
z
" clip-path="url(#p4f8592540d)" style="fill: #1f77b4; stroke: #000000"/>
    <path d="M 259.625725 369.36 
L 259.625725 305.696842 
L 275.068529 305.696842 
L 275.068529 369.36 
z
" clip-path="url(#p4f8592540d)" style="fill: #1f77b4; stroke: #000000"/>
    <path d="M 244.428044 369.36 
L 244.428044 305.696842 
L 259.625725 305.696842 
L 259.625725 369.36 
z
" clip-path="url(#p4f8592540d)" style="fill: #1f77b4; stroke: #000000"/>
    <path d="M 228.98524 369.36 
L 228.98524 305.696842 
L 244.428044 305.696842 
L 244.428044 369.36 
z
" clip-path="url(#p4f8592540d)" style="fill: #1f77b4; stroke: #000000"/>
    <path d="M 213.542435 369.36 
L 213.542435 305.696842 
L 228.98524 305.696842 
L 228.98524 369.36 
z
" clip-path="url(#p4f8592540d)" style="fill: #1f77b4; stroke: #000000"/>
    <path d="M 198.099631 369.36 
L 198.099631 305.696842 
L 213.542435 305.696842 
L 213.542435 369.36 
z
" clip-path="url(#p4f8592540d)" style="fill: #1f77b4; stroke: #000000"/>
    <path d="M 182.90195 369.36 
L 182.90195 305.696842 
L 198.099631 305.696842 
L 198.099631 369.36 
z
" clip-path="url(#p4f8592540d)" style="fill: #1f77b4; stroke: #000000"/>
    <path d="M 167.459146 369.36 
L 167.459146 305.696842 
L 182.90195 305.696842 
L 182.90195 369.36 
z
" clip-path="url(#p4f8592540d)" style="fill: #1f77b4; stroke: #000000"/>
    <path d="M 152.016342 369.36 
L 152.016342 305.696842 
L 167.459146 305.696842 
L 167.459146 369.36 
z
" clip-path="url(#p4f8592540d)" style="fill: #1f77b4; stroke: #000000"/>
    <path d="M 136.818661 369.36 
L 136.818661 305.696842 
L 152.016342 305.696842 
L 152.016342 369.36 
z
" clip-path="url(#p4f8592540d)" style="fill: #1f77b4; stroke: #000000"/>
    <path d="M 121.62098 369.36 
L 121.62098 305.696842 
L 136.818661 305.696842 
L 136.818661 369.36 
z
" clip-path="url(#p4f8592540d)" style="fill: #1f77b4; stroke: #000000"/>
    <path d="M 106.4233 369.36 
L 106.4233 305.696842 
L 121.62098 305.696842 
L 121.62098 369.36 
z
" clip-path="url(#p4f8592540d)" style="fill: #1f77b4; stroke: #000000"/>
    <path d="M 90 369.36 
L 90 305.696842 
L 106.4233 305.696842 
L 106.4233 369.36 
z
" clip-path="url(#p4f8592540d)" style="fill: #1f77b4; stroke: #000000"/>
   </g>
   <g id="PolyCollection_2">
    <path d="M 620.938324 289.781053 
L 620.938324 226.117895 
L 620.938324 226.117895 
L 620.938324 289.781053 
z
" clip-path="url(#p4f8592540d)" style="fill: #ff7f0e; stroke: #000000"/>
    <path d="M 604.760148 289.781053 
L 604.760148 226.117895 
L 619.46758 226.117895 
L 619.46758 289.781053 
z
" clip-path="url(#p4f8592540d)" style="fill: #ff7f0e; stroke: #000000"/>
    <path d="M 590.788086 289.781053 
L 590.788086 226.117895 
L 604.760148 226.117895 
L 604.760148 289.781053 
z
" clip-path="url(#p4f8592540d)" style="fill: #ff7f0e; stroke: #000000"/>
    <path d="M 574.364787 289.781053 
L 574.364787 226.117895 
L 590.788086 226.117895 
L 590.788086 289.781053 
z
" clip-path="url(#p4f8592540d)" style="fill: #ff7f0e; stroke: #000000"/>
    <path d="M 558.921982 289.781053 
L 558.921982 226.117895 
L 574.119663 226.117895 
L 574.119663 289.781053 
z
" clip-path="url(#p4f8592540d)" style="fill: #ff7f0e; stroke: #000000"/>
    <path d="M 541.518187 289.781053 
L 541.518187 226.117895 
L 558.921982 226.117895 
L 558.921982 289.781053 
z
" clip-path="url(#p4f8592540d)" style="fill: #ff7f0e; stroke: #000000"/>
    <path d="M 520.927781 289.781053 
L 520.927781 226.117895 
L 541.273063 226.117895 
L 541.273063 289.781053 
z
" clip-path="url(#p4f8592540d)" style="fill: #ff7f0e; stroke: #000000"/>
    <path d="M 500.337375 289.781053 
L 500.337375 226.117895 
L 520.927781 226.117895 
L 520.927781 289.781053 
z
" clip-path="url(#p4f8592540d)" style="fill: #ff7f0e; stroke: #000000"/>
    <path d="M 485.139694 289.781053 
L 485.139694 226.117895 
L 499.602003 226.117895 
L 499.602003 289.781053 
z
" clip-path="url(#p4f8592540d)" style="fill: #ff7f0e; stroke: #000000"/>
    <path d="M 469.942014 289.781053 
L 469.942014 226.117895 
L 485.139694 226.117895 
L 485.139694 289.781053 
z
" clip-path="url(#p4f8592540d)" style="fill: #ff7f0e; stroke: #000000"/>
    <path d="M 456.4602 289.781053 
L 456.4602 226.117895 
L 469.942014 226.117895 
L 469.942014 289.781053 
z
" clip-path="url(#p4f8592540d)" style="fill: #ff7f0e; stroke: #000000"/>
    <path d="M 441.507644 289.781053 
L 441.507644 226.117895 
L 456.4602 226.117895 
L 456.4602 289.781053 
z
" clip-path="url(#p4f8592540d)" style="fill: #ff7f0e; stroke: #000000"/>
    <path d="M 423.6136 289.781053 
L 423.6136 226.117895 
L 438.811281 226.117895 
L 438.811281 289.781053 
z
" clip-path="url(#p4f8592540d)" style="fill: #ff7f0e; stroke: #000000"/>
    <path d="M 407.925672 289.781053 
L 407.925672 226.117895 
L 423.368477 226.117895 
L 423.368477 289.781053 
z
" clip-path="url(#p4f8592540d)" style="fill: #ff7f0e; stroke: #000000"/>
    <path d="M 392.482868 289.781053 
L 392.482868 226.117895 
L 407.925672 226.117895 
L 407.925672 289.781053 
z
" clip-path="url(#p4f8592540d)" style="fill: #ff7f0e; stroke: #000000"/>
    <path d="M 375.079072 289.781053 
L 375.079072 226.117895 
L 392.482868 226.117895 
L 392.482868 289.781053 
z
" clip-path="url(#p4f8592540d)" style="fill: #ff7f0e; stroke: #000000"/>
    <path d="M 349.095941 289.781053 
L 349.095941 226.117895 
L 375.079072 226.117895 
L 375.079072 289.781053 
z
" clip-path="url(#p4f8592540d)" style="fill: #ff7f0e; stroke: #000000"/>
    <path d="M 334.878756 289.781053 
L 334.878756 226.117895 
L 348.850817 226.117895 
L 348.850817 289.781053 
z
" clip-path="url(#p4f8592540d)" style="fill: #ff7f0e; stroke: #000000"/>
    <path d="M 319.435952 289.781053 
L 319.435952 226.117895 
L 334.143384 226.117895 
L 334.143384 289.781053 
z
" clip-path="url(#p4f8592540d)" style="fill: #ff7f0e; stroke: #000000"/>
    <path d="M 303.748023 289.781053 
L 303.748023 226.117895 
L 318.945704 226.117895 
L 318.945704 289.781053 
z
" clip-path="url(#p4f8592540d)" style="fill: #ff7f0e; stroke: #000000"/>
    <path d="M 288.795467 289.781053 
L 288.795467 226.117895 
L 303.012652 226.117895 
L 303.012652 289.781053 
z
" clip-path="url(#p4f8592540d)" style="fill: #ff7f0e; stroke: #000000"/>
    <path d="M 273.352662 289.781053 
L 273.352662 226.117895 
L 288.060095 226.117895 
L 288.060095 289.781053 
z
" clip-path="url(#p4f8592540d)" style="fill: #ff7f0e; stroke: #000000"/>
    <path d="M 257.909858 289.781053 
L 257.909858 226.117895 
L 272.61729 226.117895 
L 272.61729 289.781053 
z
" clip-path="url(#p4f8592540d)" style="fill: #ff7f0e; stroke: #000000"/>
    <path d="M 231.436479 289.781053 
L 231.436479 226.117895 
L 256.193991 226.117895 
L 256.193991 289.781053 
z
" clip-path="url(#p4f8592540d)" style="fill: #ff7f0e; stroke: #000000"/>
    <path d="M 211.826568 289.781053 
L 211.826568 226.117895 
L 226.043753 226.117895 
L 226.043753 289.781053 
z
" clip-path="url(#p4f8592540d)" style="fill: #ff7f0e; stroke: #000000"/>
    <path d="M 194.667897 289.781053 
L 194.667897 226.117895 
L 210.110701 226.117895 
L 210.110701 289.781053 
z
" clip-path="url(#p4f8592540d)" style="fill: #ff7f0e; stroke: #000000"/>
    <path d="M 179.470216 289.781053 
L 179.470216 226.117895 
L 194.667897 226.117895 
L 194.667897 289.781053 
z
" clip-path="url(#p4f8592540d)" style="fill: #ff7f0e; stroke: #000000"/>
    <path d="M 163.537164 289.781053 
L 163.537164 226.117895 
L 179.470216 226.117895 
L 179.470216 289.781053 
z
" clip-path="url(#p4f8592540d)" style="fill: #ff7f0e; stroke: #000000"/>
    <path d="M 148.584607 289.781053 
L 148.584607 226.117895 
L 163.537164 226.117895 
L 163.537164 289.781053 
z
" clip-path="url(#p4f8592540d)" style="fill: #ff7f0e; stroke: #000000"/>
    <path d="M 133.632051 289.781053 
L 133.632051 226.117895 
L 148.584607 226.117895 
L 148.584607 289.781053 
z
" clip-path="url(#p4f8592540d)" style="fill: #ff7f0e; stroke: #000000"/>
    <path d="M 118.43437 289.781053 
L 118.43437 226.117895 
L 133.632051 226.117895 
L 133.632051 289.781053 
z
" clip-path="url(#p4f8592540d)" style="fill: #ff7f0e; stroke: #000000"/>
    <path d="M 103.481813 289.781053 
L 103.481813 226.117895 
L 118.43437 226.117895 
L 118.43437 289.781053 
z
" clip-path="url(#p4f8592540d)" style="fill: #ff7f0e; stroke: #000000"/>
    <path d="M 90 289.781053 
L 90 226.117895 
L 103.23669 226.117895 
L 103.23669 289.781053 
z
" clip-path="url(#p4f8592540d)" style="fill: #ff7f0e; stroke: #000000"/>
   </g>
   <g id="PolyCollection_3">
    <path d="M 621.428571 210.202105 
L 621.428571 146.538947 
L 621.428571 146.538947 
L 621.428571 210.202105 
z
" clip-path="url(#p4f8592540d)" style="fill: #2ca02c; stroke: #000000"/>
    <path d="M 620.6932 210.202105 
L 620.6932 146.538947 
L 620.938324 146.538947 
L 620.938324 210.202105 
z
" clip-path="url(#p4f8592540d)" style="fill: #2ca02c; stroke: #000000"/>
    <path d="M 620.6932 210.202105 
L 620.6932 146.538947 
L 620.6932 146.538947 
L 620.6932 210.202105 
z
" clip-path="url(#p4f8592540d)" style="fill: #2ca02c; stroke: #000000"/>
    <path d="M 620.448076 210.202105 
L 620.448076 146.538947 
L 620.6932 146.538947 
L 620.6932 210.202105 
z
" clip-path="url(#p4f8592540d)" style="fill: #2ca02c; stroke: #000000"/>
    <path d="M 620.202952 210.202105 
L 620.202952 146.538947 
L 620.448076 146.538947 
L 620.448076 210.202105 
z
" clip-path="url(#p4f8592540d)" style="fill: #2ca02c; stroke: #000000"/>
    <path d="M 619.957828 210.202105 
L 619.957828 146.538947 
L 620.202952 146.538947 
L 620.202952 210.202105 
z
" clip-path="url(#p4f8592540d)" style="fill: #2ca02c; stroke: #000000"/>
    <path d="M 619.712704 210.202105 
L 619.712704 146.538947 
L 619.957828 146.538947 
L 619.957828 210.202105 
z
" clip-path="url(#p4f8592540d)" style="fill: #2ca02c; stroke: #000000"/>
    <path d="M 619.46758 210.202105 
L 619.46758 146.538947 
L 619.712704 146.538947 
L 619.712704 210.202105 
z
" clip-path="url(#p4f8592540d)" style="fill: #2ca02c; stroke: #000000"/>
    <path d="M 500.337375 210.202105 
L 500.337375 146.538947 
L 500.337375 146.538947 
L 500.337375 210.202105 
z
" clip-path="url(#p4f8592540d)" style="fill: #2ca02c; stroke: #000000"/>
    <path d="M 500.092251 210.202105 
L 500.092251 146.538947 
L 500.337375 146.538947 
L 500.337375 210.202105 
z
" clip-path="url(#p4f8592540d)" style="fill: #2ca02c; stroke: #000000"/>
    <path d="M 499.847127 210.202105 
L 499.847127 146.538947 
L 500.092251 146.538947 
L 500.092251 210.202105 
z
" clip-path="url(#p4f8592540d)" style="fill: #2ca02c; stroke: #000000"/>
    <path d="M 499.602003 210.202105 
L 499.602003 146.538947 
L 499.847127 146.538947 
L 499.847127 210.202105 
z
" clip-path="url(#p4f8592540d)" style="fill: #2ca02c; stroke: #000000"/>
    <path d="M 441.26252 210.202105 
L 441.26252 146.538947 
L 441.507644 146.538947 
L 441.507644 210.202105 
z
" clip-path="url(#p4f8592540d)" style="fill: #2ca02c; stroke: #000000"/>
    <path d="M 440.772272 210.202105 
L 440.772272 146.538947 
L 441.26252 146.538947 
L 441.26252 210.202105 
z
" clip-path="url(#p4f8592540d)" style="fill: #2ca02c; stroke: #000000"/>
    <path d="M 440.282024 210.202105 
L 440.282024 146.538947 
L 440.772272 146.538947 
L 440.772272 210.202105 
z
" clip-path="url(#p4f8592540d)" style="fill: #2ca02c; stroke: #000000"/>
    <path d="M 439.546653 210.202105 
L 439.546653 146.538947 
L 440.282024 146.538947 
L 440.282024 210.202105 
z
" clip-path="url(#p4f8592540d)" style="fill: #2ca02c; stroke: #000000"/>
    <path d="M 439.056405 210.202105 
L 439.056405 146.538947 
L 439.546653 146.538947 
L 439.546653 210.202105 
z
" clip-path="url(#p4f8592540d)" style="fill: #2ca02c; stroke: #000000"/>
    <path d="M 348.850817 210.202105 
L 348.850817 146.538947 
L 349.095941 146.538947 
L 349.095941 210.202105 
z
" clip-path="url(#p4f8592540d)" style="fill: #2ca02c; stroke: #000000"/>
    <path d="M 334.388508 210.202105 
L 334.388508 146.538947 
L 334.878756 146.538947 
L 334.878756 210.202105 
z
" clip-path="url(#p4f8592540d)" style="fill: #2ca02c; stroke: #000000"/>
    <path d="M 318.945704 210.202105 
L 318.945704 146.538947 
L 319.435952 146.538947 
L 319.435952 210.202105 
z
" clip-path="url(#p4f8592540d)" style="fill: #2ca02c; stroke: #000000"/>
    <path d="M 303.012652 210.202105 
L 303.012652 146.538947 
L 303.502899 146.538947 
L 303.502899 210.202105 
z
" clip-path="url(#p4f8592540d)" style="fill: #2ca02c; stroke: #000000"/>
    <path d="M 288.060095 210.202105 
L 288.060095 146.538947 
L 288.795467 146.538947 
L 288.795467 210.202105 
z
" clip-path="url(#p4f8592540d)" style="fill: #2ca02c; stroke: #000000"/>
    <path d="M 272.61729 210.202105 
L 272.61729 146.538947 
L 273.352662 146.538947 
L 273.352662 210.202105 
z
" clip-path="url(#p4f8592540d)" style="fill: #2ca02c; stroke: #000000"/>
    <path d="M 256.193991 210.202105 
L 256.193991 146.538947 
L 257.909858 146.538947 
L 257.909858 210.202105 
z
" clip-path="url(#p4f8592540d)" style="fill: #2ca02c; stroke: #000000"/>
    <path d="M 228.98524 210.202105 
L 228.98524 146.538947 
L 231.191355 146.538947 
L 231.191355 210.202105 
z
" clip-path="url(#p4f8592540d)" style="fill: #2ca02c; stroke: #000000"/>
    <path d="M 228.98524 210.202105 
L 228.98524 146.538947 
L 228.98524 146.538947 
L 228.98524 210.202105 
z
" clip-path="url(#p4f8592540d)" style="fill: #2ca02c; stroke: #000000"/>
    <path d="M 228.740116 210.202105 
L 228.740116 146.538947 
L 228.98524 146.538947 
L 228.98524 210.202105 
z
" clip-path="url(#p4f8592540d)" style="fill: #2ca02c; stroke: #000000"/>
    <path d="M 228.249868 210.202105 
L 228.249868 146.538947 
L 228.740116 146.538947 
L 228.740116 210.202105 
z
" clip-path="url(#p4f8592540d)" style="fill: #2ca02c; stroke: #000000"/>
    <path d="M 227.514497 210.202105 
L 227.514497 146.538947 
L 228.249868 146.538947 
L 228.249868 210.202105 
z
" clip-path="url(#p4f8592540d)" style="fill: #2ca02c; stroke: #000000"/>
    <path d="M 226.779125 210.202105 
L 226.779125 146.538947 
L 227.514497 146.538947 
L 227.514497 210.202105 
z
" clip-path="url(#p4f8592540d)" style="fill: #2ca02c; stroke: #000000"/>
    <path d="M 226.043753 210.202105 
L 226.043753 146.538947 
L 226.779125 146.538947 
L 226.779125 210.202105 
z
" clip-path="url(#p4f8592540d)" style="fill: #2ca02c; stroke: #000000"/>
    <path d="M 211.336321 210.202105 
L 211.336321 146.538947 
L 211.826568 146.538947 
L 211.826568 210.202105 
z
" clip-path="url(#p4f8592540d)" style="fill: #2ca02c; stroke: #000000"/>
    <path d="M 210.110701 210.202105 
L 210.110701 146.538947 
L 211.336321 146.538947 
L 211.336321 210.202105 
z
" clip-path="url(#p4f8592540d)" style="fill: #2ca02c; stroke: #000000"/>
   </g>
   <g id="PolyCollection_4">
    <path d="M 620.938324 130.623158 
L 620.938324 66.96 
L 621.428571 66.96 
L 621.428571 130.623158 
z
" clip-path="url(#p4f8592540d)" style="fill: #d62728; stroke: #000000"/>
    <path d="M 620.938324 130.623158 
L 620.938324 66.96 
L 620.938324 66.96 
L 620.938324 130.623158 
z
" clip-path="url(#p4f8592540d)" style="fill: #d62728; stroke: #000000"/>
    <path d="M 620.938324 130.623158 
L 620.938324 66.96 
L 620.938324 66.96 
L 620.938324 130.623158 
z
" clip-path="url(#p4f8592540d)" style="fill: #d62728; stroke: #000000"/>
    <path d="M 620.938324 130.623158 
L 620.938324 66.96 
L 620.938324 66.96 
L 620.938324 130.623158 
z
" clip-path="url(#p4f8592540d)" style="fill: #d62728; stroke: #000000"/>
    <path d="M 620.938324 130.623158 
L 620.938324 66.96 
L 620.938324 66.96 
L 620.938324 130.623158 
z
" clip-path="url(#p4f8592540d)" style="fill: #d62728; stroke: #000000"/>
    <path d="M 620.938324 130.623158 
L 620.938324 66.96 
L 620.938324 66.96 
L 620.938324 130.623158 
z
" clip-path="url(#p4f8592540d)" style="fill: #d62728; stroke: #000000"/>
    <path d="M 620.938324 130.623158 
L 620.938324 66.96 
L 620.938324 66.96 
L 620.938324 130.623158 
z
" clip-path="url(#p4f8592540d)" style="fill: #d62728; stroke: #000000"/>
    <path d="M 620.938324 130.623158 
L 620.938324 66.96 
L 620.938324 66.96 
L 620.938324 130.623158 
z
" clip-path="url(#p4f8592540d)" style="fill: #d62728; stroke: #000000"/>
    <path d="M 500.337375 130.623158 
L 500.337375 66.96 
L 500.337375 66.96 
L 500.337375 130.623158 
z
" clip-path="url(#p4f8592540d)" style="fill: #d62728; stroke: #000000"/>
    <path d="M 500.337375 130.623158 
L 500.337375 66.96 
L 500.337375 66.96 
L 500.337375 130.623158 
z
" clip-path="url(#p4f8592540d)" style="fill: #d62728; stroke: #000000"/>
    <path d="M 500.337375 130.623158 
L 500.337375 66.96 
L 500.337375 66.96 
L 500.337375 130.623158 
z
" clip-path="url(#p4f8592540d)" style="fill: #d62728; stroke: #000000"/>
    <path d="M 500.337375 130.623158 
L 500.337375 66.96 
L 500.337375 66.96 
L 500.337375 130.623158 
z
" clip-path="url(#p4f8592540d)" style="fill: #d62728; stroke: #000000"/>
    <path d="M 441.507644 130.623158 
L 441.507644 66.96 
L 441.507644 66.96 
L 441.507644 130.623158 
z
" clip-path="url(#p4f8592540d)" style="fill: #d62728; stroke: #000000"/>
    <path d="M 441.507644 130.623158 
L 441.507644 66.96 
L 441.507644 66.96 
L 441.507644 130.623158 
z
" clip-path="url(#p4f8592540d)" style="fill: #d62728; stroke: #000000"/>
    <path d="M 441.507644 130.623158 
L 441.507644 66.96 
L 441.507644 66.96 
L 441.507644 130.623158 
z
" clip-path="url(#p4f8592540d)" style="fill: #d62728; stroke: #000000"/>
    <path d="M 441.507644 130.623158 
L 441.507644 66.96 
L 441.507644 66.96 
L 441.507644 130.623158 
z
" clip-path="url(#p4f8592540d)" style="fill: #d62728; stroke: #000000"/>
    <path d="M 441.507644 130.623158 
L 441.507644 66.96 
L 441.507644 66.96 
L 441.507644 130.623158 
z
" clip-path="url(#p4f8592540d)" style="fill: #d62728; stroke: #000000"/>
    <path d="M 349.095941 130.623158 
L 349.095941 66.96 
L 349.095941 66.96 
L 349.095941 130.623158 
z
" clip-path="url(#p4f8592540d)" style="fill: #d62728; stroke: #000000"/>
    <path d="M 349.095941 130.623158 
L 349.095941 66.96 
L 349.095941 66.96 
L 349.095941 130.623158 
z
" clip-path="url(#p4f8592540d)" style="fill: #d62728; stroke: #000000"/>
    <path d="M 349.095941 130.623158 
L 349.095941 66.96 
L 349.095941 66.96 
L 349.095941 130.623158 
z
" clip-path="url(#p4f8592540d)" style="fill: #d62728; stroke: #000000"/>
    <path d="M 349.095941 130.623158 
L 349.095941 66.96 
L 349.095941 66.96 
L 349.095941 130.623158 
z
" clip-path="url(#p4f8592540d)" style="fill: #d62728; stroke: #000000"/>
    <path d="M 348.850817 130.623158 
L 348.850817 66.96 
L 348.850817 66.96 
L 348.850817 130.623158 
z
" clip-path="url(#p4f8592540d)" style="fill: #d62728; stroke: #000000"/>
    <path d="M 348.850817 130.623158 
L 348.850817 66.96 
L 348.850817 66.96 
L 348.850817 130.623158 
z
" clip-path="url(#p4f8592540d)" style="fill: #d62728; stroke: #000000"/>
    <path d="M 257.909858 130.623158 
L 257.909858 66.96 
L 257.909858 66.96 
L 257.909858 130.623158 
z
" clip-path="url(#p4f8592540d)" style="fill: #d62728; stroke: #000000"/>
    <path d="M 231.191355 130.623158 
L 231.191355 66.96 
L 231.191355 66.96 
L 231.191355 130.623158 
z
" clip-path="url(#p4f8592540d)" style="fill: #d62728; stroke: #000000"/>
    <path d="M 228.740116 130.623158 
L 228.740116 66.96 
L 228.740116 66.96 
L 228.740116 130.623158 
z
" clip-path="url(#p4f8592540d)" style="fill: #d62728; stroke: #000000"/>
    <path d="M 210.110701 130.623158 
L 210.110701 66.96 
L 210.110701 66.96 
L 210.110701 130.623158 
z
" clip-path="url(#p4f8592540d)" style="fill: #d62728; stroke: #000000"/>
    <path d="M 210.110701 130.623158 
L 210.110701 66.96 
L 210.110701 66.96 
L 210.110701 130.623158 
z
" clip-path="url(#p4f8592540d)" style="fill: #d62728; stroke: #000000"/>
    <path d="M 210.110701 130.623158 
L 210.110701 66.96 
L 210.110701 66.96 
L 210.110701 130.623158 
z
" clip-path="url(#p4f8592540d)" style="fill: #d62728; stroke: #000000"/>
    <path d="M 210.110701 130.623158 
L 210.110701 66.96 
L 210.110701 66.96 
L 210.110701 130.623158 
z
" clip-path="url(#p4f8592540d)" style="fill: #d62728; stroke: #000000"/>
    <path d="M 210.110701 130.623158 
L 210.110701 66.96 
L 210.110701 66.96 
L 210.110701 130.623158 
z
" clip-path="url(#p4f8592540d)" style="fill: #d62728; stroke: #000000"/>
    <path d="M 210.110701 130.623158 
L 210.110701 66.96 
L 210.110701 66.96 
L 210.110701 130.623158 
z
" clip-path="url(#p4f8592540d)" style="fill: #d62728; stroke: #000000"/>
    <path d="M 210.110701 130.623158 
L 210.110701 66.96 
L 210.110701 66.96 
L 210.110701 130.623158 
z
" clip-path="url(#p4f8592540d)" style="fill: #d62728; stroke: #000000"/>
   </g>
   <g id="matplotlib.axis_1">
    <g id="xtick_1">
     <g id="line2d_1">
      <defs>
       <path id="mc92b82b4fc" d="M 0 0 
L 0 3.5 
" style="stroke: #000000; stroke-width: 0.8"/>
      </defs>
      <g>
       <use xlink:href="#mc92b82b4fc" x="90" y="384.48" style="stroke: #000000; stroke-width: 0.8"/>
      </g>
     </g>
     <g id="text_1">
      <!-- 0 -->
      <g transform="translate(86.81875 399.078438) scale(0.1 -0.1)">
       <defs>
        <path id="DejaVuSans-30" d="M 2034 4250 
Q 1547 4250 1301 3770 
Q 1056 3291 1056 2328 
Q 1056 1369 1301 889 
Q 1547 409 2034 409 
Q 2525 409 2770 889 
Q 3016 1369 3016 2328 
Q 3016 3291 2770 3770 
Q 2525 4250 2034 4250 
z
M 2034 4750 
Q 2819 4750 3233 4129 
Q 3647 3509 3647 2328 
Q 3647 1150 3233 529 
Q 2819 -91 2034 -91 
Q 1250 -91 836 529 
Q 422 1150 422 2328 
Q 422 3509 836 4129 
Q 1250 4750 2034 4750 
z
" transform="scale(0.015625)"/>
       </defs>
       <use xlink:href="#DejaVuSans-30"/>
      </g>
     </g>
    </g>
    <g id="xtick_2">
     <g id="line2d_2">
      <g>
       <use xlink:href="#mc92b82b4fc" x="212.56194" y="384.48" style="stroke: #000000; stroke-width: 0.8"/>
      </g>
     </g>
     <g id="text_2">
      <!-- 500 -->
      <g transform="translate(203.01819 399.078438) scale(0.1 -0.1)">
       <defs>
        <path id="DejaVuSans-35" d="M 691 4666 
L 3169 4666 
L 3169 4134 
L 1269 4134 
L 1269 2991 
Q 1406 3038 1543 3061 
Q 1681 3084 1819 3084 
Q 2600 3084 3056 2656 
Q 3513 2228 3513 1497 
Q 3513 744 3044 326 
Q 2575 -91 1722 -91 
Q 1428 -91 1123 -41 
Q 819 9 494 109 
L 494 744 
Q 775 591 1075 516 
Q 1375 441 1709 441 
Q 2250 441 2565 725 
Q 2881 1009 2881 1497 
Q 2881 1984 2565 2268 
Q 2250 2553 1709 2553 
Q 1456 2553 1204 2497 
Q 953 2441 691 2322 
L 691 4666 
z
" transform="scale(0.015625)"/>
       </defs>
       <use xlink:href="#DejaVuSans-35"/>
       <use xlink:href="#DejaVuSans-30" x="63.623047"/>
       <use xlink:href="#DejaVuSans-30" x="127.246094"/>
      </g>
     </g>
    </g>
    <g id="xtick_3">
     <g id="line2d_3">
      <g>
       <use xlink:href="#mc92b82b4fc" x="335.12388" y="384.48" style="stroke: #000000; stroke-width: 0.8"/>
      </g>
     </g>
     <g id="text_3">
      <!-- 1000 -->
      <g transform="translate(322.39888 399.078438) scale(0.1 -0.1)">
       <defs>
        <path id="DejaVuSans-31" d="M 794 531 
L 1825 531 
L 1825 4091 
L 703 3866 
L 703 4441 
L 1819 4666 
L 2450 4666 
L 2450 531 
L 3481 531 
L 3481 0 
L 794 0 
L 794 531 
z
" transform="scale(0.015625)"/>
       </defs>
       <use xlink:href="#DejaVuSans-31"/>
       <use xlink:href="#DejaVuSans-30" x="63.623047"/>
       <use xlink:href="#DejaVuSans-30" x="127.246094"/>
       <use xlink:href="#DejaVuSans-30" x="190.869141"/>
      </g>
     </g>
    </g>
    <g id="xtick_4">
     <g id="line2d_4">
      <g>
       <use xlink:href="#mc92b82b4fc" x="457.68582" y="384.48" style="stroke: #000000; stroke-width: 0.8"/>
      </g>
     </g>
     <g id="text_4">
      <!-- 1500 -->
      <g transform="translate(444.96082 399.078438) scale(0.1 -0.1)">
       <use xlink:href="#DejaVuSans-31"/>
       <use xlink:href="#DejaVuSans-35" x="63.623047"/>
       <use xlink:href="#DejaVuSans-30" x="127.246094"/>
       <use xlink:href="#DejaVuSans-30" x="190.869141"/>
      </g>
     </g>
    </g>
    <g id="xtick_5">
     <g id="line2d_5">
      <g>
       <use xlink:href="#mc92b82b4fc" x="580.24776" y="384.48" style="stroke: #000000; stroke-width: 0.8"/>
      </g>
     </g>
     <g id="text_5">
      <!-- 2000 -->
      <g transform="translate(567.52276 399.078438) scale(0.1 -0.1)">
       <defs>
        <path id="DejaVuSans-32" d="M 1228 531 
L 3431 531 
L 3431 0 
L 469 0 
L 469 531 
Q 828 903 1448 1529 
Q 2069 2156 2228 2338 
Q 2531 2678 2651 2914 
Q 2772 3150 2772 3378 
Q 2772 3750 2511 3984 
Q 2250 4219 1831 4219 
Q 1534 4219 1204 4116 
Q 875 4013 500 3803 
L 500 4441 
Q 881 4594 1212 4672 
Q 1544 4750 1819 4750 
Q 2544 4750 2975 4387 
Q 3406 4025 3406 3419 
Q 3406 3131 3298 2873 
Q 3191 2616 2906 2266 
Q 2828 2175 2409 1742 
Q 1991 1309 1228 531 
z
" transform="scale(0.015625)"/>
       </defs>
       <use xlink:href="#DejaVuSans-32"/>
       <use xlink:href="#DejaVuSans-30" x="63.623047"/>
       <use xlink:href="#DejaVuSans-30" x="127.246094"/>
       <use xlink:href="#DejaVuSans-30" x="190.869141"/>
      </g>
     </g>
    </g>
    <g id="text_6">
     <!-- Time (ms) -->
     <g transform="translate(343.800781 412.756563) scale(0.1 -0.1)">
      <defs>
       <path id="DejaVuSans-54" d="M -19 4666 
L 3928 4666 
L 3928 4134 
L 2272 4134 
L 2272 0 
L 1638 0 
L 1638 4134 
L -19 4134 
L -19 4666 
z
" transform="scale(0.015625)"/>
       <path id="DejaVuSans-69" d="M 603 3500 
L 1178 3500 
L 1178 0 
L 603 0 
L 603 3500 
z
M 603 4863 
L 1178 4863 
L 1178 4134 
L 603 4134 
L 603 4863 
z
" transform="scale(0.015625)"/>
       <path id="DejaVuSans-6d" d="M 3328 2828 
Q 3544 3216 3844 3400 
Q 4144 3584 4550 3584 
Q 5097 3584 5394 3201 
Q 5691 2819 5691 2113 
L 5691 0 
L 5113 0 
L 5113 2094 
Q 5113 2597 4934 2840 
Q 4756 3084 4391 3084 
Q 3944 3084 3684 2787 
Q 3425 2491 3425 1978 
L 3425 0 
L 2847 0 
L 2847 2094 
Q 2847 2600 2669 2842 
Q 2491 3084 2119 3084 
Q 1678 3084 1418 2786 
Q 1159 2488 1159 1978 
L 1159 0 
L 581 0 
L 581 3500 
L 1159 3500 
L 1159 2956 
Q 1356 3278 1631 3431 
Q 1906 3584 2284 3584 
Q 2666 3584 2933 3390 
Q 3200 3197 3328 2828 
z
" transform="scale(0.015625)"/>
       <path id="DejaVuSans-65" d="M 3597 1894 
L 3597 1613 
L 953 1613 
Q 991 1019 1311 708 
Q 1631 397 2203 397 
Q 2534 397 2845 478 
Q 3156 559 3463 722 
L 3463 178 
Q 3153 47 2828 -22 
Q 2503 -91 2169 -91 
Q 1331 -91 842 396 
Q 353 884 353 1716 
Q 353 2575 817 3079 
Q 1281 3584 2069 3584 
Q 2775 3584 3186 3129 
Q 3597 2675 3597 1894 
z
M 3022 2063 
Q 3016 2534 2758 2815 
Q 2500 3097 2075 3097 
Q 1594 3097 1305 2825 
Q 1016 2553 972 2059 
L 3022 2063 
z
" transform="scale(0.015625)"/>
       <path id="DejaVuSans-20" transform="scale(0.015625)"/>
       <path id="DejaVuSans-28" d="M 1984 4856 
Q 1566 4138 1362 3434 
Q 1159 2731 1159 2009 
Q 1159 1288 1364 580 
Q 1569 -128 1984 -844 
L 1484 -844 
Q 1016 -109 783 600 
Q 550 1309 550 2009 
Q 550 2706 781 3412 
Q 1013 4119 1484 4856 
L 1984 4856 
z
" transform="scale(0.015625)"/>
       <path id="DejaVuSans-73" d="M 2834 3397 
L 2834 2853 
Q 2591 2978 2328 3040 
Q 2066 3103 1784 3103 
Q 1356 3103 1142 2972 
Q 928 2841 928 2578 
Q 928 2378 1081 2264 
Q 1234 2150 1697 2047 
L 1894 2003 
Q 2506 1872 2764 1633 
Q 3022 1394 3022 966 
Q 3022 478 2636 193 
Q 2250 -91 1575 -91 
Q 1294 -91 989 -36 
Q 684 19 347 128 
L 347 722 
Q 666 556 975 473 
Q 1284 391 1588 391 
Q 1994 391 2212 530 
Q 2431 669 2431 922 
Q 2431 1156 2273 1281 
Q 2116 1406 1581 1522 
L 1381 1569 
Q 847 1681 609 1914 
Q 372 2147 372 2553 
Q 372 3047 722 3315 
Q 1072 3584 1716 3584 
Q 2034 3584 2315 3537 
Q 2597 3491 2834 3397 
z
" transform="scale(0.015625)"/>
       <path id="DejaVuSans-29" d="M 513 4856 
L 1013 4856 
Q 1481 4119 1714 3412 
Q 1947 2706 1947 2009 
Q 1947 1309 1714 600 
Q 1481 -109 1013 -844 
L 513 -844 
Q 928 -128 1133 580 
Q 1338 1288 1338 2009 
Q 1338 2731 1133 3434 
Q 928 4138 513 4856 
z
" transform="scale(0.015625)"/>
      </defs>
      <use xlink:href="#DejaVuSans-54"/>
      <use xlink:href="#DejaVuSans-69" x="57.958984"/>
      <use xlink:href="#DejaVuSans-6d" x="85.742188"/>
      <use xlink:href="#DejaVuSans-65" x="183.154297"/>
      <use xlink:href="#DejaVuSans-20" x="244.677734"/>
      <use xlink:href="#DejaVuSans-28" x="276.464844"/>
      <use xlink:href="#DejaVuSans-6d" x="315.478516"/>
      <use xlink:href="#DejaVuSans-73" x="412.890625"/>
      <use xlink:href="#DejaVuSans-29" x="464.990234"/>
     </g>
    </g>
   </g>
   <g id="matplotlib.axis_2">
    <g id="ytick_1">
     <g id="line2d_6">
      <defs>
       <path id="m0928adc3cc" d="M 0 0 
L -3.5 0 
" style="stroke: #000000; stroke-width: 0.8"/>
      </defs>
      <g>
       <use xlink:href="#m0928adc3cc" x="90" y="337.528421" style="stroke: #000000; stroke-width: 0.8"/>
      </g>
     </g>
     <g id="text_7">
      <!-- CPU -->
      <g transform="translate(62.66875 341.32764) scale(0.1 -0.1)">
       <defs>
        <path id="DejaVuSans-43" d="M 4122 4306 
L 4122 3641 
Q 3803 3938 3442 4084 
Q 3081 4231 2675 4231 
Q 1875 4231 1450 3742 
Q 1025 3253 1025 2328 
Q 1025 1406 1450 917 
Q 1875 428 2675 428 
Q 3081 428 3442 575 
Q 3803 722 4122 1019 
L 4122 359 
Q 3791 134 3420 21 
Q 3050 -91 2638 -91 
Q 1578 -91 968 557 
Q 359 1206 359 2328 
Q 359 3453 968 4101 
Q 1578 4750 2638 4750 
Q 3056 4750 3426 4639 
Q 3797 4528 4122 4306 
z
" transform="scale(0.015625)"/>
        <path id="DejaVuSans-50" d="M 1259 4147 
L 1259 2394 
L 2053 2394 
Q 2494 2394 2734 2622 
Q 2975 2850 2975 3272 
Q 2975 3691 2734 3919 
Q 2494 4147 2053 4147 
L 1259 4147 
z
M 628 4666 
L 2053 4666 
Q 2838 4666 3239 4311 
Q 3641 3956 3641 3272 
Q 3641 2581 3239 2228 
Q 2838 1875 2053 1875 
L 1259 1875 
L 1259 0 
L 628 0 
L 628 4666 
z
" transform="scale(0.015625)"/>
        <path id="DejaVuSans-55" d="M 556 4666 
L 1191 4666 
L 1191 1831 
Q 1191 1081 1462 751 
Q 1734 422 2344 422 
Q 2950 422 3222 751 
Q 3494 1081 3494 1831 
L 3494 4666 
L 4128 4666 
L 4128 1753 
Q 4128 841 3676 375 
Q 3225 -91 2344 -91 
Q 1459 -91 1007 375 
Q 556 841 556 1753 
L 556 4666 
z
" transform="scale(0.015625)"/>
       </defs>
       <use xlink:href="#DejaVuSans-43"/>
       <use xlink:href="#DejaVuSans-50" x="69.824219"/>
       <use xlink:href="#DejaVuSans-55" x="130.126953"/>
      </g>
     </g>
    </g>
    <g id="ytick_2">
     <g id="line2d_7">
      <g>
       <use xlink:href="#m0928adc3cc" x="90" y="257.949474" style="stroke: #000000; stroke-width: 0.8"/>
      </g>
     </g>
     <g id="text_8">
      <!-- DPU -->
      <g transform="translate(61.951562 261.748692) scale(0.1 -0.1)">
       <defs>
        <path id="DejaVuSans-44" d="M 1259 4147 
L 1259 519 
L 2022 519 
Q 2988 519 3436 956 
Q 3884 1394 3884 2338 
Q 3884 3275 3436 3711 
Q 2988 4147 2022 4147 
L 1259 4147 
z
M 628 4666 
L 1925 4666 
Q 3281 4666 3915 4102 
Q 4550 3538 4550 2338 
Q 4550 1131 3912 565 
Q 3275 0 1925 0 
L 628 0 
L 628 4666 
z
" transform="scale(0.015625)"/>
       </defs>
       <use xlink:href="#DejaVuSans-44"/>
       <use xlink:href="#DejaVuSans-50" x="77.001953"/>
       <use xlink:href="#DejaVuSans-55" x="137.304688"/>
      </g>
     </g>
    </g>
    <g id="ytick_3">
     <g id="line2d_8">
      <g>
       <use xlink:href="#m0928adc3cc" x="90" y="178.370526" style="stroke: #000000; stroke-width: 0.8"/>
      </g>
     </g>
     <g id="text_9">
      <!-- MAP -->
      <g transform="translate(61.501562 182.169745) scale(0.1 -0.1)">
       <defs>
        <path id="DejaVuSans-4d" d="M 628 4666 
L 1569 4666 
L 2759 1491 
L 3956 4666 
L 4897 4666 
L 4897 0 
L 4281 0 
L 4281 4097 
L 3078 897 
L 2444 897 
L 1241 4097 
L 1241 0 
L 628 0 
L 628 4666 
z
" transform="scale(0.015625)"/>
        <path id="DejaVuSans-41" d="M 2188 4044 
L 1331 1722 
L 3047 1722 
L 2188 4044 
z
M 1831 4666 
L 2547 4666 
L 4325 0 
L 3669 0 
L 3244 1197 
L 1141 1197 
L 716 0 
L 50 0 
L 1831 4666 
z
" transform="scale(0.015625)"/>
       </defs>
       <use xlink:href="#DejaVuSans-4d"/>
       <use xlink:href="#DejaVuSans-41" x="86.279297"/>
       <use xlink:href="#DejaVuSans-50" x="154.6875"/>
      </g>
     </g>
    </g>
    <g id="ytick_4">
     <g id="line2d_9">
      <g>
       <use xlink:href="#m0928adc3cc" x="90" y="98.791579" style="stroke: #000000; stroke-width: 0.8"/>
      </g>
     </g>
     <g id="text_10">
      <!-- REDUCE -->
      <g transform="translate(41.4125 102.590798) scale(0.1 -0.1)">
       <defs>
        <path id="DejaVuSans-52" d="M 2841 2188 
Q 3044 2119 3236 1894 
Q 3428 1669 3622 1275 
L 4263 0 
L 3584 0 
L 2988 1197 
Q 2756 1666 2539 1819 
Q 2322 1972 1947 1972 
L 1259 1972 
L 1259 0 
L 628 0 
L 628 4666 
L 2053 4666 
Q 2853 4666 3247 4331 
Q 3641 3997 3641 3322 
Q 3641 2881 3436 2590 
Q 3231 2300 2841 2188 
z
M 1259 4147 
L 1259 2491 
L 2053 2491 
Q 2509 2491 2742 2702 
Q 2975 2913 2975 3322 
Q 2975 3731 2742 3939 
Q 2509 4147 2053 4147 
L 1259 4147 
z
" transform="scale(0.015625)"/>
        <path id="DejaVuSans-45" d="M 628 4666 
L 3578 4666 
L 3578 4134 
L 1259 4134 
L 1259 2753 
L 3481 2753 
L 3481 2222 
L 1259 2222 
L 1259 531 
L 3634 531 
L 3634 0 
L 628 0 
L 628 4666 
z
" transform="scale(0.015625)"/>
       </defs>
       <use xlink:href="#DejaVuSans-52"/>
       <use xlink:href="#DejaVuSans-45" x="69.482422"/>
       <use xlink:href="#DejaVuSans-44" x="132.666016"/>
       <use xlink:href="#DejaVuSans-55" x="209.667969"/>
       <use xlink:href="#DejaVuSans-43" x="282.861328"/>
       <use xlink:href="#DejaVuSans-45" x="352.685547"/>
      </g>
     </g>
    </g>
    <g id="text_11">
     <!-- Task Type -->
     <g transform="translate(35.332812 242.024844) rotate(-90) scale(0.1 -0.1)">
      <defs>
       <path id="DejaVuSans-61" d="M 2194 1759 
Q 1497 1759 1228 1600 
Q 959 1441 959 1056 
Q 959 750 1161 570 
Q 1363 391 1709 391 
Q 2188 391 2477 730 
Q 2766 1069 2766 1631 
L 2766 1759 
L 2194 1759 
z
M 3341 1997 
L 3341 0 
L 2766 0 
L 2766 531 
Q 2569 213 2275 61 
Q 1981 -91 1556 -91 
Q 1019 -91 701 211 
Q 384 513 384 1019 
Q 384 1609 779 1909 
Q 1175 2209 1959 2209 
L 2766 2209 
L 2766 2266 
Q 2766 2663 2505 2880 
Q 2244 3097 1772 3097 
Q 1472 3097 1187 3025 
Q 903 2953 641 2809 
L 641 3341 
Q 956 3463 1253 3523 
Q 1550 3584 1831 3584 
Q 2591 3584 2966 3190 
Q 3341 2797 3341 1997 
z
" transform="scale(0.015625)"/>
       <path id="DejaVuSans-6b" d="M 581 4863 
L 1159 4863 
L 1159 1991 
L 2875 3500 
L 3609 3500 
L 1753 1863 
L 3688 0 
L 2938 0 
L 1159 1709 
L 1159 0 
L 581 0 
L 581 4863 
z
" transform="scale(0.015625)"/>
       <path id="DejaVuSans-79" d="M 2059 -325 
Q 1816 -950 1584 -1140 
Q 1353 -1331 966 -1331 
L 506 -1331 
L 506 -850 
L 844 -850 
Q 1081 -850 1212 -737 
Q 1344 -625 1503 -206 
L 1606 56 
L 191 3500 
L 800 3500 
L 1894 763 
L 2988 3500 
L 3597 3500 
L 2059 -325 
z
" transform="scale(0.015625)"/>
       <path id="DejaVuSans-70" d="M 1159 525 
L 1159 -1331 
L 581 -1331 
L 581 3500 
L 1159 3500 
L 1159 2969 
Q 1341 3281 1617 3432 
Q 1894 3584 2278 3584 
Q 2916 3584 3314 3078 
Q 3713 2572 3713 1747 
Q 3713 922 3314 415 
Q 2916 -91 2278 -91 
Q 1894 -91 1617 61 
Q 1341 213 1159 525 
z
M 3116 1747 
Q 3116 2381 2855 2742 
Q 2594 3103 2138 3103 
Q 1681 3103 1420 2742 
Q 1159 2381 1159 1747 
Q 1159 1113 1420 752 
Q 1681 391 2138 391 
Q 2594 391 2855 752 
Q 3116 1113 3116 1747 
z
" transform="scale(0.015625)"/>
      </defs>
      <use xlink:href="#DejaVuSans-54"/>
      <use xlink:href="#DejaVuSans-61" x="44.583984"/>
      <use xlink:href="#DejaVuSans-73" x="105.863281"/>
      <use xlink:href="#DejaVuSans-6b" x="157.962891"/>
      <use xlink:href="#DejaVuSans-20" x="215.873047"/>
      <use xlink:href="#DejaVuSans-54" x="247.660156"/>
      <use xlink:href="#DejaVuSans-79" x="293.119141"/>
      <use xlink:href="#DejaVuSans-70" x="352.298828"/>
      <use xlink:href="#DejaVuSans-65" x="415.775391"/>
     </g>
    </g>
   </g>
   <g id="patch_3">
    <path d="M 90 384.48 
L 90 51.84 
" style="fill: none; stroke: #000000; stroke-width: 0.8; stroke-linejoin: miter; stroke-linecap: square"/>
   </g>
   <g id="patch_4">
    <path d="M 648 384.48 
L 648 51.84 
" style="fill: none; stroke: #000000; stroke-width: 0.8; stroke-linejoin: miter; stroke-linecap: square"/>
   </g>
   <g id="patch_5">
    <path d="M 90 384.48 
L 648 384.48 
" style="fill: none; stroke: #000000; stroke-width: 0.8; stroke-linejoin: miter; stroke-linecap: square"/>
   </g>
   <g id="patch_6">
    <path d="M 90 51.84 
L 648 51.84 
" style="fill: none; stroke: #000000; stroke-width: 0.8; stroke-linejoin: miter; stroke-linecap: square"/>
   </g>
   <g id="text_12">
    <!-- Gantt Chart of Task Execution -->
    <g transform="translate(279.875625 45.84) scale(0.12 -0.12)">
     <defs>
      <path id="DejaVuSans-47" d="M 3809 666 
L 3809 1919 
L 2778 1919 
L 2778 2438 
L 4434 2438 
L 4434 434 
Q 4069 175 3628 42 
Q 3188 -91 2688 -91 
Q 1594 -91 976 548 
Q 359 1188 359 2328 
Q 359 3472 976 4111 
Q 1594 4750 2688 4750 
Q 3144 4750 3555 4637 
Q 3966 4525 4313 4306 
L 4313 3634 
Q 3963 3931 3569 4081 
Q 3175 4231 2741 4231 
Q 1884 4231 1454 3753 
Q 1025 3275 1025 2328 
Q 1025 1384 1454 906 
Q 1884 428 2741 428 
Q 3075 428 3337 486 
Q 3600 544 3809 666 
z
" transform="scale(0.015625)"/>
      <path id="DejaVuSans-6e" d="M 3513 2113 
L 3513 0 
L 2938 0 
L 2938 2094 
Q 2938 2591 2744 2837 
Q 2550 3084 2163 3084 
Q 1697 3084 1428 2787 
Q 1159 2491 1159 1978 
L 1159 0 
L 581 0 
L 581 3500 
L 1159 3500 
L 1159 2956 
Q 1366 3272 1645 3428 
Q 1925 3584 2291 3584 
Q 2894 3584 3203 3211 
Q 3513 2838 3513 2113 
z
" transform="scale(0.015625)"/>
      <path id="DejaVuSans-74" d="M 1172 4494 
L 1172 3500 
L 2356 3500 
L 2356 3053 
L 1172 3053 
L 1172 1153 
Q 1172 725 1289 603 
Q 1406 481 1766 481 
L 2356 481 
L 2356 0 
L 1766 0 
Q 1100 0 847 248 
Q 594 497 594 1153 
L 594 3053 
L 172 3053 
L 172 3500 
L 594 3500 
L 594 4494 
L 1172 4494 
z
" transform="scale(0.015625)"/>
      <path id="DejaVuSans-68" d="M 3513 2113 
L 3513 0 
L 2938 0 
L 2938 2094 
Q 2938 2591 2744 2837 
Q 2550 3084 2163 3084 
Q 1697 3084 1428 2787 
Q 1159 2491 1159 1978 
L 1159 0 
L 581 0 
L 581 4863 
L 1159 4863 
L 1159 2956 
Q 1366 3272 1645 3428 
Q 1925 3584 2291 3584 
Q 2894 3584 3203 3211 
Q 3513 2838 3513 2113 
z
" transform="scale(0.015625)"/>
      <path id="DejaVuSans-72" d="M 2631 2963 
Q 2534 3019 2420 3045 
Q 2306 3072 2169 3072 
Q 1681 3072 1420 2755 
Q 1159 2438 1159 1844 
L 1159 0 
L 581 0 
L 581 3500 
L 1159 3500 
L 1159 2956 
Q 1341 3275 1631 3429 
Q 1922 3584 2338 3584 
Q 2397 3584 2469 3576 
Q 2541 3569 2628 3553 
L 2631 2963 
z
" transform="scale(0.015625)"/>
      <path id="DejaVuSans-6f" d="M 1959 3097 
Q 1497 3097 1228 2736 
Q 959 2375 959 1747 
Q 959 1119 1226 758 
Q 1494 397 1959 397 
Q 2419 397 2687 759 
Q 2956 1122 2956 1747 
Q 2956 2369 2687 2733 
Q 2419 3097 1959 3097 
z
M 1959 3584 
Q 2709 3584 3137 3096 
Q 3566 2609 3566 1747 
Q 3566 888 3137 398 
Q 2709 -91 1959 -91 
Q 1206 -91 779 398 
Q 353 888 353 1747 
Q 353 2609 779 3096 
Q 1206 3584 1959 3584 
z
" transform="scale(0.015625)"/>
      <path id="DejaVuSans-66" d="M 2375 4863 
L 2375 4384 
L 1825 4384 
Q 1516 4384 1395 4259 
Q 1275 4134 1275 3809 
L 1275 3500 
L 2222 3500 
L 2222 3053 
L 1275 3053 
L 1275 0 
L 697 0 
L 697 3053 
L 147 3053 
L 147 3500 
L 697 3500 
L 697 3744 
Q 697 4328 969 4595 
Q 1241 4863 1831 4863 
L 2375 4863 
z
" transform="scale(0.015625)"/>
      <path id="DejaVuSans-78" d="M 3513 3500 
L 2247 1797 
L 3578 0 
L 2900 0 
L 1881 1375 
L 863 0 
L 184 0 
L 1544 1831 
L 300 3500 
L 978 3500 
L 1906 2253 
L 2834 3500 
L 3513 3500 
z
" transform="scale(0.015625)"/>
      <path id="DejaVuSans-63" d="M 3122 3366 
L 3122 2828 
Q 2878 2963 2633 3030 
Q 2388 3097 2138 3097 
Q 1578 3097 1268 2742 
Q 959 2388 959 1747 
Q 959 1106 1268 751 
Q 1578 397 2138 397 
Q 2388 397 2633 464 
Q 2878 531 3122 666 
L 3122 134 
Q 2881 22 2623 -34 
Q 2366 -91 2075 -91 
Q 1284 -91 818 406 
Q 353 903 353 1747 
Q 353 2603 823 3093 
Q 1294 3584 2113 3584 
Q 2378 3584 2631 3529 
Q 2884 3475 3122 3366 
z
" transform="scale(0.015625)"/>
      <path id="DejaVuSans-75" d="M 544 1381 
L 544 3500 
L 1119 3500 
L 1119 1403 
Q 1119 906 1312 657 
Q 1506 409 1894 409 
Q 2359 409 2629 706 
Q 2900 1003 2900 1516 
L 2900 3500 
L 3475 3500 
L 3475 0 
L 2900 0 
L 2900 538 
Q 2691 219 2414 64 
Q 2138 -91 1772 -91 
Q 1169 -91 856 284 
Q 544 659 544 1381 
z
M 1991 3584 
L 1991 3584 
z
" transform="scale(0.015625)"/>
     </defs>
     <use xlink:href="#DejaVuSans-47"/>
     <use xlink:href="#DejaVuSans-61" x="77.490234"/>
     <use xlink:href="#DejaVuSans-6e" x="138.769531"/>
     <use xlink:href="#DejaVuSans-74" x="202.148438"/>
     <use xlink:href="#DejaVuSans-74" x="241.357422"/>
     <use xlink:href="#DejaVuSans-20" x="280.566406"/>
     <use xlink:href="#DejaVuSans-43" x="312.353516"/>
     <use xlink:href="#DejaVuSans-68" x="382.177734"/>
     <use xlink:href="#DejaVuSans-61" x="445.556641"/>
     <use xlink:href="#DejaVuSans-72" x="506.835938"/>
     <use xlink:href="#DejaVuSans-74" x="547.949219"/>
     <use xlink:href="#DejaVuSans-20" x="587.158203"/>
     <use xlink:href="#DejaVuSans-6f" x="618.945312"/>
     <use xlink:href="#DejaVuSans-66" x="680.126953"/>
     <use xlink:href="#DejaVuSans-20" x="715.332031"/>
     <use xlink:href="#DejaVuSans-54" x="747.119141"/>
     <use xlink:href="#DejaVuSans-61" x="791.703125"/>
     <use xlink:href="#DejaVuSans-73" x="852.982422"/>
     <use xlink:href="#DejaVuSans-6b" x="905.082031"/>
     <use xlink:href="#DejaVuSans-20" x="962.992188"/>
     <use xlink:href="#DejaVuSans-45" x="994.779297"/>
     <use xlink:href="#DejaVuSans-78" x="1057.962891"/>
     <use xlink:href="#DejaVuSans-65" x="1114.017578"/>
     <use xlink:href="#DejaVuSans-63" x="1175.541016"/>
     <use xlink:href="#DejaVuSans-75" x="1230.521484"/>
     <use xlink:href="#DejaVuSans-74" x="1293.900391"/>
     <use xlink:href="#DejaVuSans-69" x="1333.109375"/>
     <use xlink:href="#DejaVuSans-6f" x="1360.892578"/>
     <use xlink:href="#DejaVuSans-6e" x="1422.074219"/>
    </g>
   </g>
   <g id="legend_1">
    <g id="patch_7">
     <path d="M 567.4125 133.230625 
L 641 133.230625 
Q 643 133.230625 643 131.230625 
L 643 58.84 
Q 643 56.84 641 56.84 
L 567.4125 56.84 
Q 565.4125 56.84 565.4125 58.84 
L 565.4125 131.230625 
Q 565.4125 133.230625 567.4125 133.230625 
z
" style="fill: #ffffff; opacity: 0.8; stroke: #cccccc; stroke-linejoin: miter"/>
    </g>
    <g id="text_13">
     <!-- Task Types -->
     <g transform="translate(577.736719 68.438437) scale(0.1 -0.1)">
      <use xlink:href="#DejaVuSans-54"/>
      <use xlink:href="#DejaVuSans-61" x="44.583984"/>
      <use xlink:href="#DejaVuSans-73" x="105.863281"/>
      <use xlink:href="#DejaVuSans-6b" x="157.962891"/>
      <use xlink:href="#DejaVuSans-20" x="215.873047"/>
      <use xlink:href="#DejaVuSans-54" x="247.660156"/>
      <use xlink:href="#DejaVuSans-79" x="293.119141"/>
      <use xlink:href="#DejaVuSans-70" x="352.298828"/>
      <use xlink:href="#DejaVuSans-65" x="415.775391"/>
      <use xlink:href="#DejaVuSans-73" x="477.298828"/>
     </g>
    </g>
    <g id="patch_8">
     <path d="M 569.4125 83.116562 
L 589.4125 83.116562 
L 589.4125 76.116562 
L 569.4125 76.116562 
z
" style="fill: #1f77b4; stroke: #000000; stroke-linejoin: miter"/>
    </g>
    <g id="text_14">
     <!-- CPU -->
     <g transform="translate(597.4125 83.116562) scale(0.1 -0.1)">
      <use xlink:href="#DejaVuSans-43"/>
      <use xlink:href="#DejaVuSans-50" x="69.824219"/>
      <use xlink:href="#DejaVuSans-55" x="130.126953"/>
     </g>
    </g>
    <g id="patch_9">
     <path d="M 569.4125 97.794688 
L 589.4125 97.794688 
L 589.4125 90.794688 
L 569.4125 90.794688 
z
" style="fill: #ff7f0e; stroke: #000000; stroke-linejoin: miter"/>
    </g>
    <g id="text_15">
     <!-- DPU -->
     <g transform="translate(597.4125 97.794688) scale(0.1 -0.1)">
      <use xlink:href="#DejaVuSans-44"/>
      <use xlink:href="#DejaVuSans-50" x="77.001953"/>
      <use xlink:href="#DejaVuSans-55" x="137.304688"/>
     </g>
    </g>
    <g id="patch_10">
     <path d="M 569.4125 112.472812 
L 589.4125 112.472812 
L 589.4125 105.472812 
L 569.4125 105.472812 
z
" style="fill: #2ca02c; stroke: #000000; stroke-linejoin: miter"/>
    </g>
    <g id="text_16">
     <!-- MAP -->
     <g transform="translate(597.4125 112.472812) scale(0.1 -0.1)">
      <use xlink:href="#DejaVuSans-4d"/>
      <use xlink:href="#DejaVuSans-41" x="86.279297"/>
      <use xlink:href="#DejaVuSans-50" x="154.6875"/>
     </g>
    </g>
    <g id="patch_11">
     <path d="M 569.4125 127.150937 
L 589.4125 127.150937 
L 589.4125 120.150937 
L 569.4125 120.150937 
z
" style="fill: #d62728; stroke: #000000; stroke-linejoin: miter"/>
    </g>
    <g id="text_17">
     <!-- REDUCE -->
     <g transform="translate(597.4125 127.150937) scale(0.1 -0.1)">
      <use xlink:href="#DejaVuSans-52"/>
      <use xlink:href="#DejaVuSans-45" x="69.482422"/>
      <use xlink:href="#DejaVuSans-44" x="132.666016"/>
      <use xlink:href="#DejaVuSans-55" x="209.667969"/>
      <use xlink:href="#DejaVuSans-43" x="282.861328"/>
      <use xlink:href="#DejaVuSans-45" x="352.685547"/>
     </g>
    </g>
   </g>
  </g>
 </g>
 <defs>
  <clipPath id="p4f8592540d">
   <rect x="90" y="51.84" width="558" height="332.64"/>
  </clipPath>
 </defs>
</svg>
